<svg xmlns="http://www.w3.org/2000/svg" width="358.608" height="152.8" viewBox="0 0 358.608 152.8">
  <g id="그룹_166391" data-name="그룹 166391" transform="translate(0.825)">
    <g id="그룹_164781" data-name="그룹 164781" transform="translate(102.851 83.816)">
      <path id="패스_88798" data-name="패스 88798" d="M398.944,379.365l.5-17.045h2.586s.488,15.264-.022,17.44-2.891,2.276-3.06-.4" transform="translate(-373.778 -343.98)" fill="#7cc931"/>
      <path id="패스_88799" data-name="패스 88799" d="M398.722,378.472l.7-16.151h2.585s1.168,15.079.657,17.256S398.892,381.144,398.722,378.472Z" transform="translate(-373.761 -343.98)" fill="none" stroke="#000" stroke-linecap="round" stroke-linejoin="round" stroke-width="1.52"/>
      <path id="패스_88800" data-name="패스 88800" d="M404.931,346.118c-6.235,6.158-6.562,14.509-4.846,16.757,1.225,1.6,11.593.437,16.32-3.178s6.83-14,5.6-15.6c-1.717-2.247-12.842-2.156-17.078,2.025" transform="translate(-373.796 -342.507)" fill="#7cc931"/>
      <path id="패스_88801" data-name="패스 88801" d="M404.9,346.108c-7.646,6.291-6.562,14.509-4.846,16.757,1.225,1.6,11.6.451,16.32-3.178,6.494-5,6.83-14,5.6-15.6C420.265,341.835,410.459,341.539,404.9,346.108Z" transform="translate(-373.769 -342.498)" fill="none" stroke="#000" stroke-linecap="round" stroke-linejoin="round" stroke-width="1.52"/>
      <path id="패스_88802" data-name="패스 88802" d="M395.316,346.374c6.236,6.158,6.562,14.507,4.846,16.757-1.225,1.6-11.593.437-16.319-3.176s-6.83-14-5.6-15.606c1.716-2.249,12.841-2.156,17.077,2.025" transform="translate(-372.204 -342.527)" fill="#7cc931"/>
      <path id="패스_88803" data-name="패스 88803" d="M395.308,346.348c7.477,6.87,6.562,14.507,4.846,16.757-1.225,1.6-10.736,1.466-16.319-3.176-5.664-4.711-6.83-14-5.6-15.606C379.947,342.073,389.685,341.181,395.308,346.348Z" transform="translate(-372.197 -342.501)" fill="none" stroke="#000" stroke-linecap="round" stroke-linejoin="round" stroke-width="1.52"/>
      <path id="패스_88804" data-name="패스 88804" d="M383.772,347.715s11.253,7.675,16.829,15.777" transform="translate(-372.644 -342.888)" fill="none" stroke="#000" stroke-linecap="round" stroke-linejoin="round" stroke-width="1.52"/>
      <path id="패스_88805" data-name="패스 88805" d="M403.327,359.431s6.626-7.68,10.834-9.784" transform="translate(-374.105 -343.032)" fill="none" stroke="#000" stroke-linecap="round" stroke-linejoin="round" stroke-width="1.52"/>
      <path id="패스_88806" data-name="패스 88806" d="M405.773,383.33c-.031-1.1-2.451-1.919-3.03-.71-.808-3.742-6.627-3.376-8.516-.3l1.447,2.91" transform="translate(-373.425 -345.294)" fill="#907237"/>
      <path id="패스_88807" data-name="패스 88807" d="M394.227,382.322c1.889-3.077,7.708-3.442,8.516.3.579-1.209,3-.391,3.03.71" transform="translate(-373.425 -345.294)" fill="none" stroke="#000" stroke-linecap="round" stroke-linejoin="round" stroke-width="1.52"/>
      <path id="패스_88811" data-name="패스 88811" d="M372.421,389.235s-3.072-6.337,4.773-9.3c3.946-1.491,7.321,1.029,8.228,1.756s1.512-.061,2.056-1.089a11.455,11.455,0,0,1,10.83-6.837c7.744,0,11.133,4.538,12.16,6.655s1.453,1.331,1.876,1.21,5.115-2.845,10.5-1.049c4.751,1.586,7.848,5.508,6.457,8.653" transform="translate(-371.762 -344.835)" fill="#907237" stroke="#707070" stroke-width="1"/>
      <path id="패스_88812" data-name="패스 88812" d="M372.3,389.235s-2.96-6.337,4.885-9.3c3.946-1.491,7.321,1.029,8.228,1.756s1.512-.061,2.056-1.089a11.455,11.455,0,0,1,10.83-6.837c7.744,0,11.133,4.538,12.16,6.655s1.453,1.331,1.876,1.21,5.115-2.845,10.5-1.049c4.751,1.586,7.687,5.508,6.3,8.653" transform="translate(-371.748 -344.835)" fill="none" stroke="#000" stroke-linecap="round" stroke-linejoin="round" stroke-width="1.52"/>
    </g>
    <g id="그룹_164782" data-name="그룹 164782" transform="translate(0 59.078)">
      <path id="패스_88845" data-name="패스 88845" d="M358.634,388.216c2.933-2.77,8.759-4.8,9.709.423.648,3.542-2.961,4.78-4.575,7.627" transform="translate(-289.8 -370.334)" fill="#5e7083"/>
      <path id="패스_88846" data-name="패스 88846" d="M358.634,388.216c2.933-2.77,8.759-4.8,9.709.423.648,3.542-2.961,4.78-4.575,7.627" transform="translate(-289.8 -370.334)" fill="none" stroke="#000" stroke-linecap="round" stroke-miterlimit="10" stroke-width="1.52"/>
      <path id="패스_88847" data-name="패스 88847" d="M312.234,425.953c3.945,21.3,22.8,26.681,44.1,22.726s36.959-15.734,33.014-37.03-24.657-36.659-45.957-32.713-35.107,25.731-31.16,47.018" transform="translate(-311.561 -373.61)" fill="#5e7083"/>
      <path id="패스_88848" data-name="패스 88848" d="M312.234,425.953c3.945,21.3,22.8,26.681,44.1,22.726s36.959-15.734,33.014-37.03-24.657-36.659-45.957-32.713S308.287,404.667,312.234,425.953Z" transform="translate(-311.561 -373.61)" fill="none" stroke="#000" stroke-miterlimit="10" stroke-width="1.52"/>
      <path id="패스_88849" data-name="패스 88849" d="M326.96,420.308c3,16.245,15.842,20.639,30.185,17.975s24.746-11.362,21.734-27.6c-2.185-11.744-9.294-23.454-19.049-22.8-3.979.26-5.64,2.043-9.612,2.775-3.151.586-6.282-1.355-11.109.2-9.24,2.977-14.5,16.784-12.149,29.455" transform="translate(-304.702 -369.2)" fill="#fff"/>
      <path id="패스_88850" data-name="패스 88850" d="M344.294,400.884l5.715-2.017s.507-4.8-3.739-3.6-1.976,5.617-1.976,5.617" transform="translate(-296.709 -365.861)" fill="#fde87b"/>
      <path id="패스_88851" data-name="패스 88851" d="M344.294,400.884l5.715-2.017s.507-4.8-3.739-3.6S344.294,400.884,344.294,400.884Z" transform="translate(-296.709 -365.861)" fill="none" stroke="#000" stroke-miterlimit="10" stroke-width="1.383"/>
      <path id="패스_88852" data-name="패스 88852" d="M351.153,391.873a1.924,1.924,0,0,1-.216,2.606,1.546,1.546,0,0,1-2.666-1.13,1.781,1.781,0,0,1,2.882-1.475" transform="translate(-294.592 -367.526)"/>
      <path id="패스_88853" data-name="패스 88853" d="M342.186,394.4a1.943,1.943,0,0,1-.221,2.613,1.547,1.547,0,0,1-2.667-1.138,1.789,1.789,0,0,1,2.888-1.475" transform="translate(-298.74 -366.355)"/>
      <path id="패스_88854" data-name="패스 88854" d="M350.686,401.086l-5.707,2.017s-.518,4.8,3.735,3.6,1.973-5.617,1.973-5.617" transform="translate(-296.122 -363.083)" fill="#fde87b"/>
      <path id="패스_88855" data-name="패스 88855" d="M350.686,401.086l-5.707,2.017s-.518,4.8,3.735,3.6S350.686,401.086,350.686,401.086Z" transform="translate(-296.122 -363.083)" fill="none" stroke="#000" stroke-miterlimit="10" stroke-width="1.383"/>
      <path id="패스_88856" data-name="패스 88856" d="M334.5,432.016l-1.215-4.884L341,430.305" transform="translate(-301.518 -351.041)" fill="none" stroke="#000" stroke-linecap="round" stroke-linejoin="round" stroke-width="1.52"/>
      <path id="패스_88857" data-name="패스 88857" d="M349.519,428.855l-.714-4.124,7.377,2.489" transform="translate(-294.344 -352.151)" fill="none" stroke="#000" stroke-linecap="round" stroke-linejoin="round" stroke-width="1.52"/>
      <path id="패스_88858" data-name="패스 88858" d="M333.627,375.1c.323.564,2.11,4.709,2.11,4.709l3.331-4.144" transform="translate(-301.36 -375.098)" fill="none" stroke="#000" stroke-linecap="round" stroke-linejoin="round" stroke-width="1.52"/>
      <path id="패스_88859" data-name="패스 88859" d="M344.313,399.093c.057,1.516.876,3.154,1.247,4.577" transform="translate(-296.421 -364.005)" fill="none" stroke="#000" stroke-linecap="round" stroke-linejoin="round" stroke-width="1.52"/>
      <path id="패스_88860" data-name="패스 88860" d="M348.015,397.954c-.117,1.407.823,2.66.967,4.026" transform="translate(-294.714 -364.531)" fill="none" stroke="#000" stroke-linecap="round" stroke-linejoin="round" stroke-width="1.52"/>
      <path id="패스_88861" data-name="패스 88861" d="M322.7,412.47a4.132,4.132,0,0,1,2.09,4.578c-.674,3.7-5.13,5.532-7.664,2.571-1.573-1.832-.453-3.382.519-5.163,1.059-1.93,2.794-3.46,5.055-1.986" transform="translate(-309.349 -358.093)" fill="#cdd3c2"/>
      <path id="패스_88862" data-name="패스 88862" d="M322.779,412.981a6.828,6.828,0,0,0-3.021,4.182c-.316,1.022-.806,2.407-.18,3.264a11.767,11.767,0,0,0,3.676,2.637c1.512.772,3.131,1.426,4.669,2.173.386.19,1.392.864,1.832.7.379-.132,1.086-1.565,1.3-1.957.291-.537.434-1.139.718-1.648.266-.467,1.113-1.323,1.072-1.867-.048-.6-1.386-1.553-1.844-1.917a24.013,24.013,0,0,0-2.46-1.613c-1.632-.994-3.044-2.144-4.751-2.995-.461-.234-.969-.405-1.408-.642" transform="translate(-307.994 -357.584)" fill="#ff4d4c"/>
      <path id="패스_88863" data-name="패스 88863" d="M329.835,419.66c.952-1.015,7.924-6.7,12.449-3.583s10.653,12.267,11.094,16.14-6.488,9.5-16.726,6.615-11.084-7.3-10.863-9.815a19.118,19.118,0,0,1,4.046-9.357" transform="translate(-304.997 -356.579)" fill="#cdd3c2"/>
      <path id="패스_88864" data-name="패스 88864" d="M329.815,419.884c.952-1.015,4.311-7.129,10.362-4.608,5.073,2.116,14.417,11.356,12.763,18.2-.914,3.789-6.677,8.905-16.914,6.022s-10.4-7.347-10.173-9.865S327.712,422.115,329.815,419.884Z" transform="translate(-304.977 -356.801)" fill="none" stroke="#000" stroke-linecap="round" stroke-linejoin="round" stroke-width="1.52"/>
      <path id="패스_88865" data-name="패스 88865" d="M336.061,421.606c1.2,1.155,7.089,6.664,6.011,7.648s-8.674-.6-11.1-2.019-13.649-6.912-14.506-8.443,1.714-6.519,3.86-6.959S331.905,417.613,336.061,421.606Z" transform="translate(-309.37 -358.125)" fill="none" stroke="#000" stroke-linecap="round" stroke-linejoin="round" stroke-width="1.52"/>
      <path id="패스_88866" data-name="패스 88866" d="M323.619,413.03c-1.3,0-2.423,2.888-2.911,3.906-.572,1.18-1.437,2.813-1.278,4" transform="translate(-307.932 -357.561)" fill="none" stroke="#000" stroke-linecap="round" stroke-linejoin="round" stroke-width="1.52"/>
      <path id="패스_88867" data-name="패스 88867" d="M318.166,408.839s-3.512,6.009.057,8.708,6.99-7.861,6.99-7.861" transform="translate(-309.221 -359.499)" fill="#5e7083"/>
      <path id="패스_88868" data-name="패스 88868" d="M318.166,408.839s-3.512,6.009.057,8.708,6.99-7.861,6.99-7.861" transform="translate(-309.221 -359.499)" fill="none" stroke="#000" stroke-linecap="round" stroke-miterlimit="10" stroke-width="1.52"/>
    </g>
    <g id="그룹_164783" data-name="그룹 164783" transform="translate(184.958 59.078)">
      <path id="패스_88540" data-name="패스 88540" d="M597.635,380.7c1.672,0,3.025,2.794,3.025,6.252s-1.353,6.249-3.025,6.249-3.024-2.8-3.024-6.249,1.35-6.252,3.024-6.252" transform="translate(-528.402 -317.081)" fill="#4fb247"/>
      <path id="패스_88541" data-name="패스 88541" d="M588.945,383.392c1.3-1.06,4.008.122,6.054,2.63s2.671,5.408,1.376,6.468-4.005-.117-6.055-2.63-2.671-5.411-1.376-6.468" transform="translate(-531.131 -316.09)" fill="#4fb247"/>
      <path id="패스_88817" data-name="패스 88817" d="M554.034,372.947c-3.739,1.254-8.171,5.348-4.105,8.573,2.758,2.185,5.491-.358,8.7-.44" transform="translate(-548.31 -320.414)" fill="#5e7083"/>
      <path id="패스_88818" data-name="패스 88818" d="M554.034,372.947c-3.739,1.254-8.171,5.348-4.105,8.573,2.758,2.185,5.491-.358,8.7-.44" transform="translate(-548.31 -320.414)" fill="none" stroke="#000" stroke-linecap="round" stroke-miterlimit="10" stroke-width="1.52"/>
      <path id="패스_88819" data-name="패스 88819" d="M627.994,377.664c.914,21.159-15.873,30.434-37.036,31.341s-38.676-6.877-39.6-28.039,15.449-40.347,36.611-41.261,39.108,16.808,40.02,37.959" transform="translate(-547.014 -334.721)" fill="#5e7083"/>
      <path id="패스_88820" data-name="패스 88820" d="M627.994,377.664c.914,21.159-15.873,30.434-37.036,31.341s-38.676-6.877-39.6-28.039,15.449-40.347,36.611-41.261S627.081,356.513,627.994,377.664Z" transform="translate(-547.014 -334.721)" fill="none" stroke="#000" stroke-miterlimit="10" stroke-width="1.52"/>
      <path id="패스_88821" data-name="패스 88821" d="M605.887,376.384c.705,16.139-10.563,23.147-24.817,23.756s-26.075-5.391-26.768-21.533c-.5-11.669,3.7-24.391,13.142-25.907,3.849-.625,5.826.708,9.769.536,3.133-.137,5.691-2.674,10.632-2.254,9.456.809,17.5,12.81,18.042,25.4" transform="translate(-545.751 -329.878)" fill="#fff"/>
      <path id="패스_88822" data-name="패스 88822" d="M572.823,364.573l-5.926-.061s-1.986-4.28,2.321-4.515,3.6,4.576,3.6,4.576" transform="translate(-540.515 -325.985)" fill="#fde87b"/>
      <path id="패스_88823" data-name="패스 88823" d="M572.823,364.573l-5.926-.061s-1.986-4.28,2.321-4.515S572.823,364.573,572.823,364.573Z" transform="translate(-540.515 -325.985)" fill="none" stroke="#000" stroke-miterlimit="10" stroke-width="1.383"/>
      <path id="패스_88824" data-name="패스 88824" d="M562.765,358.51a1.881,1.881,0,0,0,1.024,2.344,1.511,1.511,0,0,0,2.111-1.888,1.743,1.743,0,0,0-3.134-.456" transform="translate(-542.135 -326.967)"/>
      <path id="패스_88825" data-name="패스 88825" d="M572.07,358a1.9,1.9,0,0,0,1.028,2.351,1.515,1.515,0,0,0,2.111-1.9A1.749,1.749,0,0,0,572.07,358" transform="translate(-538.133 -327.184)"/>
      <path id="패스_88826" data-name="패스 88826" d="M567.057,366.665l5.926.06s1.99,4.276-2.319,4.512-3.606-4.572-3.606-4.572" transform="translate(-540.267 -323.115)" fill="#fde87b"/>
      <path id="패스_88827" data-name="패스 88827" d="M567.057,366.665l5.926.06s1.99,4.276-2.319,4.512S567.057,366.665,567.057,366.665Z" transform="translate(-540.267 -323.115)" fill="none" stroke="#000" stroke-miterlimit="10" stroke-width="1.383"/>
      <path id="패스_88828" data-name="패스 88828" d="M589.781,391.76l.086-4.921-6.658,4.718" transform="translate(-533.305 -314.44)" fill="none" stroke="#000" stroke-linecap="round" stroke-linejoin="round" stroke-width="1.52"/>
      <path id="패스_88829" data-name="패스 88829" d="M574.375,392.071l-.224-4.086-6.482,3.993" transform="translate(-539.987 -313.948)" fill="none" stroke="#000" stroke-linecap="round" stroke-linejoin="round" stroke-width="1.52"/>
      <path id="패스_88830" data-name="패스 88830" d="M577.371,336.21c-.183.612-.977,4.953-.977,4.953l-4.085-3.217" transform="translate(-537.992 -336.21)" fill="none" stroke="#000" stroke-linecap="round" stroke-linejoin="round" stroke-width="1.52"/>
      <path id="패스_88831" data-name="패스 88831" d="M570.721,363.3c.426,1.42.183,3.193.292,4.629" transform="translate(-538.674 -324.561)" fill="none" stroke="#000" stroke-linecap="round" stroke-linejoin="round" stroke-width="1.52"/>
      <path id="패스_88832" data-name="패스 88832" d="M566.849,363.421c.561,1.263.084,2.723.38,4.033" transform="translate(-540.339 -324.51)" fill="none" stroke="#000" stroke-linecap="round" stroke-linejoin="round" stroke-width="1.52"/>
      <path id="패스_88833" data-name="패스 88833" d="M593.772,356.206s-3.451-.761-5.281.959-1.687,3.115-.688,6.322,4.4,9.818,6.266,9.978,7.376-3.589,8.54-4.547,4.85-5.334,4.231-7.193-3.113-4.51-4.423-3.885-1.158,3.229-1.135,4.879-2.422,4.06-4.491,5.038-3.173.259-3.978-2.175-2.98-5.9,2.083-5.441-.971-3.911-.971-3.911" transform="translate(-531.642 -327.684)" fill="#ed80b4"/>
      <path id="패스_88834" data-name="패스 88834" d="M592.166,381.93s-5.289-1.161-8.61-.2-4.9,8.724-2.155,17.09c2.863,8.723,8.006,12.811,12.771,10.041a27.491,27.491,0,0,0,10.316-9.834c3.3-5.081,4.344-11.151.449-13.742a19.655,19.655,0,0,0-8.357-2.627" transform="translate(-534.686 -316.801)" fill="#b9b8bd"/>
      <path id="패스_88835" data-name="패스 88835" d="M596.146,367.971l-3.888,25.5a2.169,2.169,0,0,1-4.288-.652l3.888-25.506a2.328,2.328,0,0,0,1.839,1.3,3.323,3.323,0,0,0,2.449-.648" transform="translate(-531.269 -322.835)" fill="#b9b8bd"/>
      <path id="패스_88836" data-name="패스 88836" d="M592.166,381.93s-5.289-1.161-8.61-.2-4.9,8.724-2.155,17.09c2.863,8.723,8.006,12.811,12.771,10.041a27.491,27.491,0,0,0,10.316-9.834c3.3-5.081,4.344-11.151.449-13.742a19.655,19.655,0,0,0-8.357-2.627" transform="translate(-534.686 -316.801)" fill="none" stroke="#000" stroke-linecap="round" stroke-linejoin="round" stroke-width="1.52"/>
      <path id="패스_88837" data-name="패스 88837" d="M596.146,367.971l-3.888,25.5a2.169,2.169,0,0,1-4.288-.652l3.888-25.506a2.328,2.328,0,0,0,1.839,1.3A3.323,3.323,0,0,0,596.146,367.971Z" transform="translate(-531.269 -322.835)" fill="none" stroke="#000" stroke-linecap="round" stroke-linejoin="round" stroke-width="1.52"/>
      <path id="패스_88838" data-name="패스 88838" d="M592.107,372.1c-1.51-1.915-4.453-7.289-4.823-11.029s1.556-5.086,5.658-5.252c4.337-.172,8.841,1.105,10.56,2.189,2.79,1.757,4.434,3.819,2.112,7.227a24.8,24.8,0,0,1-9.083,7.658" transform="translate(-531.572 -327.785)" fill="none" stroke="#000" stroke-linecap="round" stroke-linejoin="round" stroke-width="1.52"/>
      <path id="패스_88839" data-name="패스 88839" d="M592.732,365.2s-3.295-6.037-.787-6.309a10.761,10.761,0,0,1,7.008,1.616c1.223.735.153,1.45-1.53,3.232C595.992,365.255,594.528,368.336,592.732,365.2Z" transform="translate(-529.954 -326.487)" fill="none" stroke="#000" stroke-linecap="round" stroke-linejoin="round" stroke-width="1.52"/>
      <path id="패스_88840" data-name="패스 88840" d="M590.392,356.1a4.761,4.761,0,0,0,.739,4.4c1.467,2.327,3.922,2.96,6.582,2.873,2.393-.074,5.556-1.9,5.6-4.935.044-2.834-3.03-4-5.244-4.532a11.817,11.817,0,0,0-4.2-.023,4.161,4.161,0,0,0-3.478,2.212" transform="translate(-530.334 -328.687)" fill="#5e7083"/>
      <path id="패스_88841" data-name="패스 88841" d="M590.392,356.1a4.761,4.761,0,0,0,.739,4.4c1.467,2.327,3.922,2.96,6.582,2.873,2.393-.074,5.556-1.9,5.6-4.935.044-2.834-3.03-4-5.244-4.532a11.817,11.817,0,0,0-4.2-.023A4.161,4.161,0,0,0,590.392,356.1Z" transform="translate(-530.334 -328.687)" fill="none" stroke="#000" stroke-miterlimit="10" stroke-width="1.52"/>
      <path id="패스_88844" data-name="패스 88844" d="M589,387.5a19.313,19.313,0,0,0-.924,7.02" transform="translate(-531.214 -314.157)" fill="none" stroke="#000" stroke-linecap="round" stroke-linejoin="round" stroke-width="1.52"/>
    </g>
    <g id="그룹_164784" data-name="그룹 164784" transform="translate(277.457 0)">
      <path id="패스_22482" data-name="패스 22482" d="M247.863,361.671a6.345,6.345,0,1,0-6.345,6.345,6.344,6.344,0,0,0,6.345-6.345" transform="translate(-182.862 -275.156)" fill="#82cc56"/>
      <path id="패스_22483" data-name="패스 22483" d="M253.846,360.246a6.345,6.345,0,1,0-6.345,6.345,6.344,6.344,0,0,0,6.345-6.345" transform="translate(-197.712 -275.826)" fill="#82cc56"/>
      <path id="패스_22484" data-name="패스 22484" d="M259.07,357.207a6.345,6.345,0,1,0-6.345,6.345,6.344,6.344,0,0,0,6.345-6.345" transform="translate(-210.678 -277.255)" fill="#82cc56"/>
      <path id="패스_22485" data-name="패스 22485" d="M263.534,356.922a6.345,6.345,0,1,0-6.345,6.345,6.344,6.344,0,0,0,6.345-6.345" transform="translate(-221.758 -277.389)" fill="#82cc56"/>
      <path id="패스_22553" data-name="패스 22553" d="M241.673,363.46a6.345,6.345,0,1,0-6.345,6.345,6.344,6.344,0,0,0,6.345-6.345" transform="translate(-167.498 -274.315)" fill="#82cc56"/>
      <path id="패스_22560" data-name="패스 22560" d="M271.414,355.671a8.386,8.386,0,1,0-8.387,8.387,8.386,8.386,0,0,0,8.387-8.387" transform="translate(-235.27 -278.955)" fill="#82cc56"/>
      <path id="패스_22791" data-name="패스 22791" d="M261.64,395.016l7.424-2.5-3.051,4.734" transform="translate(-243.291 -257.627)" fill="none" stroke="#000" stroke-linecap="round" stroke-linejoin="round" stroke-width="1.52"/>
      <line id="선_498" data-name="선 498" x1="0.48" y2="4.519" transform="translate(46.502 137.276)" fill="none" stroke="#000" stroke-linecap="round" stroke-linejoin="round" stroke-width="1.52"/>
      <line id="선_499" data-name="선 499" x1="4.763" y1="5.346" transform="translate(46.984 137.276)" fill="none" stroke="#000" stroke-linecap="round" stroke-linejoin="round" stroke-width="1.52"/>
      <path id="패스_22792" data-name="패스 22792" d="M304.389,393.011c-3.464,21.96-22.661,28-44.616,24.533-11.907-1.882-22.185-6.171-28.541-13.207-5.361-5.937-11.527-28.217,4.012-45.453,8.879-9.844,22.155-15.414,35.876-13.244,21.96,3.464,36.734,25.418,33.269,47.371" transform="translate(-225.38 -280.45)" fill="#5e7083"/>
      <path id="패스_22793" data-name="패스 22793" d="M304.389,393.011c-3.464,21.96-22.661,28-44.616,24.533-11.907-1.882-22.185-6.171-28.541-13.207-5.361-5.937-11.527-28.217,4.012-45.453,8.879-9.844,22.155-15.414,35.876-13.244C293.08,349.1,307.854,371.059,304.389,393.011Z" transform="translate(-225.38 -280.45)" fill="none" stroke="#000" stroke-linecap="round" stroke-linejoin="round" stroke-width="1.52"/>
      <path id="패스_22794" data-name="패스 22794" d="M287.637,388.062c-6.288,15.744-17.58,21.941-31.482,16.39a22.683,22.683,0,0,1-14.149-17.92c-1.144-7.487,1.429-17.2,1.776-18.313.786-2.546,4.858-10.128,9.561-13.542,4.009-2.908,8.654-1.916,10.223-1.5,3.953,1.063,5.266,3.191,9.112,4.725,3.059,1.227,6.6-.108,11.148,2.422,8.7,4.848,8.716,15.452,3.812,27.734" transform="translate(-235.629 -276.834)" fill="#fff"/>
      <path id="패스_22795" data-name="패스 22795" d="M262.066,360.42a1.98,1.98,0,0,0,.325,2.669,1.585,1.585,0,0,0,2.688-1.266,1.831,1.831,0,0,0-3.013-1.4" transform="translate(-239.356 -272.926)"/>
      <path id="패스_22796" data-name="패스 22796" d="M251.746,363.018a1.988,1.988,0,0,0,.326,2.675,1.586,1.586,0,0,0,2.687-1.273,1.832,1.832,0,0,0-3.013-1.4" transform="translate(-213.743 -271.702)"/>
      <path id="패스_22797" data-name="패스 22797" d="M263.214,371.464l-5.909-1.421s-.71-4.9,3.69-3.843,2.219,5.264,2.219,5.264" transform="translate(-231.493 -270.073)" fill="#fde87b"/>
      <path id="패스_22798" data-name="패스 22798" d="M263.214,371.464l-5.909-1.421s-.71-4.9,3.69-3.843S263.214,371.464,263.214,371.464Z" transform="translate(-231.493 -270.073)" fill="none" stroke="#000" stroke-linecap="round" stroke-linejoin="round" stroke-width="1.52"/>
      <path id="패스_22799" data-name="패스 22799" d="M258.26,368.819l5.909,1.43s.71,4.894-3.69,3.834-2.219-5.264-2.219-5.264" transform="translate(-232.627 -268.769)" fill="#fde87b"/>
      <path id="패스_22800" data-name="패스 22800" d="M258.26,368.819l5.909,1.43s.71,4.894-3.69,3.834S258.26,368.819,258.26,368.819Z" transform="translate(-232.627 -268.769)" fill="none" stroke="#000" stroke-linecap="round" stroke-linejoin="round" stroke-width="1.52"/>
      <path id="패스_22801" data-name="패스 22801" d="M236.241,338.016s.042,3.25.382,6.349c.166,1.544,1.989,1.728,1.989,1.728s2.309,13.456,2.881,15.378,4.369,5.063,13.884,4.089c13.59-1.39,13.2-5.9,13.2-5.9l1.149-15.128a8.9,8.9,0,0,0,1.552-3.264s.968-6.194-1.861-8.227c-1.974-1.424-8-3.862-15.9-3.36s-13.238,3.215-15.323,4.962-1.79,2.051-1.955,3.375" transform="translate(-208.025 -287.322)" fill="#f47471"/>
      <path id="패스_22802" data-name="패스 22802" d="M236.2,338.016s.042,3.25.382,6.349c.166,1.544,1.989,1.728,1.989,1.728s2.309,13.456,2.881,15.378,4.369,5.063,13.884,4.089c13.59-1.39,13.2-5.9,13.2-5.9l.6-14.747c1.224.16,2.2-1.817,2.2-1.817s.864-8.021-1.965-10.055c-1.974-1.424-8-3.862-15.9-3.36s-13.238,3.215-15.323,4.962S236.36,336.692,236.2,338.016Z" transform="translate(-207.979 -287.322)" fill="none" stroke="#000" stroke-linecap="round" stroke-linejoin="round" stroke-width="1.52"/>
      <path id="패스_22803" data-name="패스 22803" d="M267.766,340.122s-3.718,2.7-14.29,3.508c-9.939.76-15.427-2.4-15.427-2.4" transform="translate(-207.029 -282.276)" fill="none" stroke="#000" stroke-linecap="round" stroke-linejoin="round" stroke-width="1.52"/>
      <path id="패스_22804" data-name="패스 22804" d="M240.6,335.133c0,1.464,5.115,2.653,11.418,2.653s11.421-1.189,11.421-2.653c0-1.481-5.112-2.666-11.421-2.666s-11.418,1.186-11.418,2.666" transform="translate(-206.485 -285.885)" fill="#99604a"/>
      <path id="패스_22805" data-name="패스 22805" d="M265.569,333.724s-1.755,2.7-12.326,3.5c-9.937.765-13.869-2.391-13.869-2.391" transform="translate(-206.796 -285.289)" fill="none" stroke="#000" stroke-linecap="round" stroke-linejoin="round" stroke-width="1.52"/>
      <path id="패스_22806" data-name="패스 22806" d="M246.461,343.03l5.042-.147-1.962-21.151H246.18Z" transform="translate(-202.817 -290.971)" fill="#7cc931"/>
      <path id="패스_22807" data-name="패스 22807" d="M246.461,343.03l5.042-.147-1.962-21.151H246.18Z" transform="translate(-202.817 -290.971)" fill="none" stroke="#000" stroke-linecap="round" stroke-linejoin="round" stroke-width="1.52"/>
      <path id="패스_22808" data-name="패스 22808" d="M269.82,313.368c7.865,3.489,10.929,13.792,9.275,17.53-1.186,2.671-11.354,8.387-19.222,4.9s-12.5-15-11.323-17.669c1.66-3.735,13.4-8.245,21.27-4.758" transform="translate(-234.084 -295.343)" fill="#7cc931"/>
      <path id="패스_22809" data-name="패스 22809" d="M269.82,313.368c7.865,3.489,10.929,13.792,9.275,17.53-1.186,2.671-11.354,8.387-19.222,4.9s-12.5-15-11.323-17.669C250.21,314.39,261.95,309.88,269.82,313.368Z" transform="translate(-234.084 -295.343)" fill="none" stroke="#000" stroke-linecap="round" stroke-linejoin="round" stroke-width="1.52"/>
      <path id="패스_22810" data-name="패스 22810" d="M236.9,312.915c-7.29,4.574-8.857,15.206-6.681,18.677,1.55,2.475,12.434,6.677,19.728,2.1s9.026-16.545,7.475-19.017c-2.176-3.465-13.23-6.342-20.522-1.762" transform="translate(-184.269 -296.099)" fill="#7cc931"/>
      <path id="패스_22811" data-name="패스 22811" d="M236.9,312.915c-7.29,4.574-8.857,15.206-6.681,18.677,1.55,2.475,12.434,6.677,19.728,2.1s9.026-16.545,7.475-19.017C255.249,311.212,244.195,308.335,236.9,312.915Z" transform="translate(-184.269 -296.099)" fill="none" stroke="#000" stroke-linecap="round" stroke-linejoin="round" stroke-width="1.52"/>
      <path id="패스_22812" data-name="패스 22812" d="M266.247,326.19s-9.106-6.028-17.232-6.861" transform="translate(-221.762 -292.074)" fill="none" stroke="#000" stroke-linecap="round" stroke-linejoin="round" stroke-width="1.52"/>
      <path id="패스_22813" data-name="패스 22813" d="M253.833,316.207s-14.991,7.516-17.862,12.657" transform="translate(-190.016 -293.552)" fill="none" stroke="#000" stroke-linecap="round" stroke-linejoin="round" stroke-width="1.52"/>
      <path id="패스_22814" data-name="패스 22814" d="M247.677,360.285c-1.484-2.631-3.444-6.66-6.832-6.93-5.869-.457-2.331,8.026-.719,10.729" transform="translate(-186.256 -276.082)" fill="#5e7083"/>
      <path id="패스_22815" data-name="패스 22815" d="M247.677,360.285c-1.484-2.631-3.444-6.66-6.832-6.93-5.869-.457-2.331,8.026-.719,10.729" transform="translate(-186.256 -276.082)" fill="none" stroke="#000" stroke-linecap="round" stroke-linejoin="round" stroke-width="1.52"/>
      <g id="그룹_164779" data-name="그룹 164779" transform="translate(26.076)">
        <g id="타원_9807" data-name="타원 9807" fill="#fdaf31" stroke="#000" stroke-width="1.52">
          <circle cx="17.273" cy="17.273" r="17.273" stroke="none"/>
          <circle cx="17.273" cy="17.273" r="16.513" fill="none"/>
        </g>
        <circle id="타원_9808" data-name="타원 9808" cx="11.515" cy="11.515" r="11.515" transform="translate(5.758 5.758)" fill="#ffdf74"/>
        <text id="_" data-name="\" transform="translate(11.515 21.061)" font-size="11" font-family="OneShinhan-Bold, OneShinhan" font-weight="700"><tspan x="0" y="0">\</tspan></text>
      </g>
    </g>
  </g>
</svg>
